<svg viewBox="0 0 512 512" xmlns="http://www.w3.org/2000/svg">
  <defs>
    <linearGradient id="bg" x1="0" y1="0" x2="1" y2="1">
      <stop offset="0%" stop-color="#1a2647"/>
      <stop offset="100%" stop-color="#0b1220"/>
    </linearGradient>
    <linearGradient id="gold" x1="0" y1="0" x2="0" y2="1">
      <stop offset="0%" stop-color="#ffd97a"/>
      <stop offset="100%" stop-color="#e1a92a"/>
    </linearGradient>
  </defs>
  <rect width="512" height="512" rx="96" fill="url(#bg)"/>
  <g transform="translate(96 80)" fill="url(#gold)" stroke="#5b3a00" stroke-width="6" stroke-linejoin="round" stroke-linecap="round">
    <path d="M160 24 L200 90 L280 90 L220 150 L240 230 L160 190 L80 230 L100 150 L40 90 L120 90 Z"/>
    <rect x="120" y="250" width="80" height="60" rx="6"/>
    <rect x="96" y="312" width="128" height="32" rx="6"/>
    <rect x="76" y="344" width="168" height="32" rx="8"/>
    <g transform="translate(140 352) scale(0.66)" fill="url(#gold)" stroke="#5b3a00" stroke-width="5" stroke-linejoin="round" stroke-linecap="round">
      <path d="M62 8 C 81 8, 97 22, 104 39 C 112 58, 107 77, 89 90 L 95 112 L 30 112 L 35 89 C 18 78 10 58 18 39 C 25 22 41 8 62 8 Z"/>
      <path d="M59 18 C 71 21, 81 30, 87 42 L 69 53 L 50 38 L 38 44 L 29 31 C 37 22 47 18 59 18 Z" fill="#5b3a00" fill-opacity="0.18" stroke="none"/>
      <circle cx="58" cy="48" r="3.2" fill="#5b3a00"/>
      <circle cx="56.6" cy="46.8" r="0.9" fill="#fff6d8"/>
    </g>
  </g>
</svg>
